# xmcd
# 
# Track frame offsets:
#     150
#     17282
#     31660
#     46040
#     62612
#     78130
#     97402
#     111797
#     126687
#     143042
#     162860
# 
# Disc length: 2423
# 
# Revision: 1
# Processed by: cddbd v1.5.2PL0 Copyright (c) Steve Scherf et al.
# Submitted via: fre:ac v1.0.27
# 
DISCID=8409750b
DTITLE=Zack Hexum - The Story So Far
DYEAR=2004
DGENRE=Jazz-influenced Rock
TTITLE0=Met a Girl Like You Once
TTITLE1=Sun Still Shines
TTITLE2=How Many Times
TTITLE3=Simple City
TTITLE4=Princess of Darkness
TTITLE5=Spicy Streak
TTITLE6=Outside Opinion
TTITLE7=All I Want
TTITLE8=Rushing Back
TTITLE9=Long Distance
TTITLE10=One Spin
EXTD=YEAR: 2004
EXTT0=
EXTT1=
EXTT2=
EXTT3=
EXTT4=
EXTT5=
EXTT6=
EXTT7=
EXTT8=
EXTT9=
EXTT10=
PLAYORDER=
